PathFileType	4	(X/Y/Z)	CPRIT_Patient3_L_HipIso_Processed.TRC
DataRate	CameraRate	NumFrames	NumMarkers	Units	OrigDataRate	OrigDataStartFrame	OrigNumFrames
150.114591291062	150.114591291062	6	39	m	150.114591291062	656	       1311
Frame#	Time	R.Heel			R.Midfoot.Superior			R.Midfoot.Lateral			R.Toe			L.Heel			L.Midfoot.Superior			L.Midfoot.Lateral			L.Toe			R.Shank.Superior			R.Shank.Inferior			R.Shank.Lateral			R.Shank.Posterior			L.Shank.Superior			L.Shank.Inferior			L.Shank.Posterior			L.Shank.Lateral			R.Patella			L.Patella			R.Thigh.Superior			R.Thigh.Lateral			R.Thigh.Inferior			L.Thigh.Superior			L.Thigh.Inferior			L.Thigh.Lateral			L.Asis			R.Asis			Sacral			R.Shoulder			L.Shoulder			C7			J.Notch			Sternum			Thoracic			L.Elbow			L.Wrist			R.Elbow			R.Wrist			R.PSIS			L.PSIS			
		X1	Y1	Z1	X2	Y2	Z2	X3	Y3	Z3	X4	Y4	Z4	X5	Y5	Z5	X6	Y6	Z6	X7	Y7	Z7	X8	Y8	Z8	X9	Y9	Z9	X10	Y10	Z10	X11	Y11	Z11	X12	Y12	Z12	X13	Y13	Z13	X14	Y14	Z14	X15	Y15	Z15	X16	Y16	Z16	X17	Y17	Z17	X18	Y18	Z18	X19	Y19	Z19	X20	Y20	Z20	X21	Y21	Z21	X22	Y22	Z22	X23	Y23	Z23	X24	Y24	Z24	X25	Y25	Z25	X26	Y26	Z26	X27	Y27	Z27	X28	Y28	Z28	X29	Y29	Z29	X30	Y30	Z30	X31	Y31	Z31	X32	Y32	Z32	X33	Y33	Z33	X34	Y34	Z34	X35	Y35	Z35	X36	Y36	Z36	X37	Y37	Z37	X38	Y38	Z38	X39	Y39	Z39	

656	4.363333333333	0.872554473127	0.049306909098	0.147712743272	1.041528629965	0.099229658267	0.132562680747	0.958133409238	0.037611166541	0.190398530563	1.158509046294	0.056585074382	0.120136090905	0.785610898198	0.064351716033	0.022358226094	0.921274302587	0.111634431988	-0.086574846270	0.820645460444	0.048647369430	-0.068349643779	1.017011001763	0.066085570318	-0.149733193081	1.004494815503	0.361603082821	0.158160833425	0.995623535140	0.240745496218	0.157190799286	0.941748175733	0.294890142173	0.228322442060	0.868157164511	0.357269471809	0.187267038082	0.918208938108	0.381340240025	-0.088321310055	0.895318365359	0.255018815657	-0.067550790903	0.788457596560	0.374196532049	-0.026379353920	0.825205649966	0.304956786394	-0.098546729985	1.023477604199	0.472755436604	0.130257220697	0.954876642523	0.495365357003	-0.095139785830	1.081382944130	0.773555085775	0.118640495439	1.020120356890	0.711935432774	0.202939909845	1.054006330756	0.617463311454	0.102907089555	0.971649762710	0.804435351532	-0.126620763674	0.972650088314	0.642824588863	-0.108288057455	0.864680415917	0.730341917162	-0.137692532092	0.967652463349	0.962919940044	-0.098734090486	1.075356981920	0.927332255409	0.110006694523	0.868707602119	1.016200892929	0.096031400840	1.047793027374	1.454206694671	0.194893775352	0.964542385947	1.432361956405	-0.122679263861	0.965678146339	1.487806028934	0.056685201800	1.074051798246	1.379601917871	0.018899329965	1.109173012304	1.192852259589	-0.000159610770	0.877634960224	1.339385375060	0.092694941557	0.874939610327	1.164678242685	-0.275543502550	0.959812326948	0.988186028658	-0.435648166311	0.961072681296	1.208585401222	0.412339506508	1.088039185142	0.988742994564	0.421914092076	0.888251492887	1.013239116237	0.125448342185	0.851052731222	1.018266143526	0.056468304936	
657	4.369994910941	0.872550442507	0.049307894764	0.147714313154	1.041521902490	0.099227208125	0.132539573999	0.958132804197	0.037613410329	0.190397101255	1.158501674167	0.056587662104	0.120128149961	0.784331725490	0.064579643919	0.020984152357	0.920333195787	0.111654871462	-0.087619790670	0.819526044841	0.048877339611	-0.069638618563	1.016106986182	0.065940809927	-0.150619868684	1.004452646204	0.361612123261	0.158022093183	0.995587613691	0.240753564045	0.157099770119	0.941742623602	0.294918708812	0.228220470508	0.868127801144	0.357281300813	0.187189994025	0.917879776428	0.381371212544	-0.089143072444	0.894668865441	0.255070850243	-0.068509383911	0.787922890852	0.374431203208	-0.027509520840	0.824723220568	0.305183447014	-0.099627870901	1.023409173709	0.472686520511	0.130039392806	0.954743656934	0.495399456322	-0.095845397742	1.081302422167	0.773490429482	0.118467407310	1.020114981050	0.711871908551	0.202936540513	1.053916274785	0.617399163916	0.102738788553	0.971485726241	0.804572492974	-0.126807871179	0.972502953227	0.642934663593	-0.108697651007	0.864586528739	0.730486524902	-0.138080266418	0.967398785603	0.962981415381	-0.098824759571	1.075383247626	0.927331364172	0.109734383637	0.868676922873	1.016174301630	0.096058686287	1.047734014396	1.454194090411	0.194857946047	0.964154504466	1.432379191976	-0.122682223921	0.965443178181	1.487806905482	0.056728363583	1.073846459418	1.379684601122	0.018832858937	1.109014122264	1.192931477331	-0.000336177344	0.877494310299	1.339370815218	0.092812298666	0.874862274321	1.164619699089	-0.275501373855	0.959784231243	0.988187856789	-0.435655371524	0.961209467800	1.208621169743	0.412425658419	1.088086569626	0.988737442384	0.421914127432	0.888260859572	1.013210493012	0.125448217566	0.850988021928	1.018235435112	0.056521573093	
658	4.376656488550	0.872547056935	0.049308315212	0.147714958089	1.041515582220	0.099223730430	0.132516241821	0.958132164415	0.037615593239	0.190395680588	1.158494961184	0.056590126211	0.120119647371	0.783155048463	0.064785803226	0.019449495265	0.919470191499	0.111689211676	-0.088837511047	0.818496753926	0.049106545569	-0.071098821995	1.015276350312	0.065836103212	-0.151706772515	1.004406100219	0.361622241542	0.157887071222	0.995548680554	0.240762435498	0.157011765007	0.941734043738	0.294948674669	0.228117631062	0.868092991619	0.357292458112	0.187111673291	0.917581925751	0.381421878260	-0.090072121035	0.894075711489	0.255136248254	-0.069604675449	0.787434134717	0.374654137577	-0.028723243973	0.824281811242	0.305420840019	-0.100817182433	1.023337053613	0.472620070498	0.129826915090	0.954622664141	0.495461386585	-0.096640440018	1.081207692277	0.773427645649	0.118312001724	1.020082561832	0.711812651206	0.202955746110	1.053821848330	0.617338007681	0.102587141137	0.971305096685	0.804732624903	-0.127021703040	0.972354214985	0.643069783979	-0.109167943481	0.864481752120	0.730656920407	-0.138489311413	0.967129697552	0.963048023890	-0.098909766745	1.075396648274	0.927329372828	0.109470494964	0.868637325546	1.016151982270	0.096095438733	1.047688543365	1.454182661591	0.194825087253	0.963778704419	1.432394366360	-0.122681865367	0.965223901189	1.487810013052	0.056773646364	1.073650678232	1.379762961560	0.018770705524	1.108855180565	1.193006462879	-0.000505120366	0.877360237817	1.339364740978	0.092935504297	0.874793676814	1.164563549170	-0.275458148936	0.959757749634	0.988190022270	-0.435663400083	0.961351368136	1.208657912548	0.412512916838	1.088134605189	0.988731775100	0.421912786194	0.888260593318	1.013184700423	0.125455765882	0.850913678062	1.018211018202	0.056584156391	
659	4.383318066158	0.872544346831	0.049308147255	0.147714655518	1.041509684569	0.099219215112	0.132492745387	0.958131500907	0.037617700168	0.190394270783	1.158488939327	0.056592476267	0.120110607359	0.782091705126	0.064969220602	0.017762277631	0.918695603155	0.111737840989	-0.090220140610	0.817568431343	0.049334165940	-0.072722305057	1.014529842487	0.065772870191	-0.152986167861	1.004355588274	0.361633399705	0.157755737691	0.995507123891	0.240772103796	0.156926719405	0.941722890816	0.294979986096	0.228014220667	0.868053287446	0.357303056574	0.187032501529	0.917321377790	0.381492541576	-0.091103084803	0.893546917514	0.255215123768	-0.070830379225	0.786997437534	0.374864320538	-0.030015058718	0.823888540775	0.305667890933	-0.102108709113	1.023261667634	0.472556657962	0.129619994300	0.954518181255	0.495551880972	-0.097520143589	1.081099873458	0.773367418750	0.118173228209	1.020024174536	0.711758131416	0.202995708404	1.053723735834	0.617280323957	0.102451214802	0.971108900709	0.804916049888	-0.127261936678	0.972206559754	0.643230588109	-0.109696672207	0.864367766475	0.730852287653	-0.138917965899	0.966845017958	0.963120030766	-0.098989063815	1.075397170676	0.927326584636	0.109215083084	0.868588538455	1.016133808472	0.096141542454	1.047655002130	1.454172579584	0.194795352477	0.963416393369	1.432407708633	-0.122678271295	0.965019523581	1.487815442848	0.056820787739	1.073463902949	1.379837226428	0.018713090581	1.108695755597	1.193077544432	-0.000666216013	0.877231885296	1.339367107877	0.093064032093	0.874733591994	1.164509904461	-0.275414202179	0.959732891994	0.988192525935	-0.435672240843	0.961496467936	1.208694982655	0.412600459742	1.088182894533	0.988726027469	0.421909966633	0.888250463421	1.013161745538	0.125470894642	0.850829489889	1.018192560411	0.056655956770	
660	4.389979643766	0.872542357128	0.049307363645	0.147713372003	1.041504203814	0.099213659442	0.132469147289	0.958130823418	0.037619716977	0.190392874690	1.158483622519	0.056594736457	0.120101069783	0.781152167863	0.065129073357	0.015930229650	0.918019685527	0.111801257587	-0.091759683875	0.816751801551	0.049559507949	-0.074501242710	1.013878320887	0.065752577271	-0.154449862326	1.004301439432	0.361645562256	0.157628084176	0.995463291379	0.240782567887	0.156844575032	0.941709511441	0.295012551100	0.227910597077	0.868009173878	0.357313185062	0.186952945748	0.917104300436	0.381583542659	-0.092230563738	0.893090529636	0.255307638821	-0.072180179834	0.786618902956	0.375060843842	-0.031379891835	0.823550695427	0.305923592390	-0.103496720577	1.023183317541	0.472496795190	0.129418806822	0.954434981327	0.495671663845	-0.098479651690	1.080980097908	0.773310361285	0.118049787245	1.019941161643	0.711708731389	0.203054348357	1.053622453374	0.617226532731	0.102329840731	0.970898443945	0.805123081496	-0.127527938747	0.972063004719	0.643417768644	-0.110281225671	0.864246634200	0.731071774311	-0.139364658650	0.966544605135	0.963197712154	-0.099062554385	1.075384877578	0.927323293997	0.108968110902	0.868530338434	1.016119584946	0.096196918742	1.047631885787	1.454163941546	0.194768883977	0.963068819892	1.432419443335	-0.122671485814	0.964829212811	1.487823245803	0.056869576992	1.073285531488	1.379907599617	0.018660194577	1.108535363121	1.193145031639	-0.000819343430	0.877108404046	1.339377817683	0.093197464476	0.874681724073	1.164458817921	-0.275369855413	0.959709659788	0.988195361755	-0.435681856251	0.961643053670	1.208731832170	0.412687651930	1.088231075297	0.988720231276	0.421905611965	0.888230304556	1.013141587382	0.125493571247	0.850735261602	1.018179649126	0.056736925555	
661	4.396641221374	0.872541144777	0.049305934413	0.147711066382	1.041499114333	0.099207069328	0.132445513070	0.958130140231	0.037621630492	0.190391496269	1.158479007714	0.056596944774	0.120091089572	0.780346566131	0.065264681040	0.013960748061	0.917452634563	0.111880072531	-0.093448075911	0.816057483346	0.049782001702	-0.076427981232	1.013332751174	0.065776749054	-0.156089273578	1.004243895181	0.361658695413	0.157504136092	0.995417485765	0.240793831569	0.156765288443	0.941694136163	0.295046238221	0.227807180831	0.867961061099	0.357322904172	0.186873512821	0.916937017786	0.381695260094	-0.093449162132	0.892714614850	0.255414005250	-0.073647772284	0.786304622493	0.375242894149	-0.032813074329	0.823275713979	0.306187001614	-0.104975736489	1.023102180185	0.472440926452	0.129223513023	0.954378065765	0.495821444654	-0.099514046608	1.080849478907	0.773257004438	0.117940157902	1.019835099479	0.711664740209	0.203129369343	1.053518331665	0.617176987114	0.102221642837	0.970675303897	0.805354035905	-0.127818766869	0.971926878160	0.643632058558	-0.110918666451	0.864120776877	0.731314487787	-0.139827954908	0.966228365271	0.963281354412	-0.099130094745	1.075359896572	0.927319786774	0.108729464427	0.868462541875	1.016109040093	0.096261523063	1.047617821536	1.454156769004	0.194745807400	0.962737022244	1.432429784928	-0.122661517275	0.964652102476	1.487833428277	0.056919858810	1.073114911288	1.379974255129	0.018612152220	1.108373465798	1.193209208188	-0.000964488919	0.876988961621	1.339396717741	0.093335501989	0.874637703839	1.164410282225	-0.275325374094	0.959688044291	0.988198516618	-0.435692182375	0.961789643535	1.208768022730	0.412774054017	1.088278823950	0.988714414762	0.421899711736	0.888200005016	1.013124127643	0.125523820896	0.850630803542	1.018171787592	0.056827058484	
